# 3ds Max Wavefront OBJ Exporter v0.97b - (c)2007 guruware
# File Created: 10.05.2019 15:12:44

mtllib plane.mtl

#
# object Plane001
#

v  -103.3333 -47.0370 -0.0000
v  -103.3333 -82.5926 -0.0000
v  -48.1482 -47.0370 -0.0000
v  -48.1482 -82.5926 -0.0000
v  7.0370 -47.0370 -0.0000
v  7.0370 -82.5926 -0.0000
v  62.2222 -47.0370 -0.0000
v  62.2222 -82.5926 -0.0000
v  117.4074 -47.0370 -0.0000
v  117.4074 -82.5926 -0.0000
v  -103.3333 -11.4815 -0.0000
v  -48.1482 -11.4815 -0.0000
v  7.0370 -11.4815 -0.0000
v  62.2222 -11.4815 -0.0000
v  117.4074 -11.4815 -0.0000
v  -103.3333 24.0741 0.0000
v  -48.1482 24.0741 0.0000
v  7.0370 24.0741 0.0000
v  62.2222 24.0741 0.0000
v  117.4074 24.0741 0.0000
v  -103.3333 59.6296 0.0000
v  -48.1482 59.6296 0.0000
v  7.0370 59.6296 0.0000
v  62.2222 59.6296 0.0000
v  117.4074 59.6296 0.0000
# 25 vertices

vn 0.0000 -0.0000 1.0000
# 1 vertex normals

vt 0.0000 0.2500 0.0000
vt 0.0000 0.0000 0.0000
vt 0.2500 0.2500 0.0000
vt 0.2500 0.0000 0.0000
vt 0.5000 0.2500 0.0000
vt 0.5000 0.0000 0.0000
vt 0.7500 0.2500 0.0000
vt 0.7500 0.0000 0.0000
vt 1.0000 0.2500 0.0000
vt 1.0000 0.0000 0.0000
vt 0.0000 0.5000 0.0000
vt 0.2500 0.5000 0.0000
vt 0.5000 0.5000 0.0000
vt 0.7500 0.5000 0.0000
vt 1.0000 0.5000 0.0000
vt 0.0000 0.7500 0.0000
vt 0.2500 0.7500 0.0000
vt 0.5000 0.7500 0.0000
vt 0.7500 0.7500 0.0000
vt 1.0000 0.7500 0.0000
vt 0.0000 1.0000 0.0000
vt 0.2500 1.0000 0.0000
vt 0.5000 1.0000 0.0000
vt 0.7500 1.0000 0.0000
vt 1.0000 1.0000 0.0000
# 25 texture coords

o Plane001
g Plane001
usemtl wire_166229229
s 1
f 1/1/1 2/2/1 3/3/1 
f 4/4/1 3/3/1 2/2/1 
f 3/3/1 4/4/1 5/5/1 
f 6/6/1 5/5/1 4/4/1 
f 5/5/1 6/6/1 7/7/1 
f 8/8/1 7/7/1 6/6/1 
f 7/7/1 8/8/1 9/9/1 
f 10/10/1 9/9/1 8/8/1 
f 11/11/1 1/1/1 12/12/1 
f 3/3/1 12/12/1 1/1/1 
f 12/12/1 3/3/1 13/13/1 
f 5/5/1 13/13/1 3/3/1 
f 13/13/1 5/5/1 14/14/1 
f 7/7/1 14/14/1 5/5/1 
f 14/14/1 7/7/1 15/15/1 
f 9/9/1 15/15/1 7/7/1 
f 16/16/1 11/11/1 17/17/1 
f 12/12/1 17/17/1 11/11/1 
f 17/17/1 12/12/1 18/18/1 
f 13/13/1 18/18/1 12/12/1 
f 18/18/1 13/13/1 19/19/1 
f 14/14/1 19/19/1 13/13/1 
f 19/19/1 14/14/1 20/20/1 
f 15/15/1 20/20/1 14/14/1 
f 21/21/1 16/16/1 22/22/1 
f 17/17/1 22/22/1 16/16/1 
f 22/22/1 17/17/1 23/23/1 
f 18/18/1 23/23/1 17/17/1 
f 23/23/1 18/18/1 24/24/1 
f 19/19/1 24/24/1 18/18/1 
f 24/24/1 19/19/1 25/25/1 
f 20/20/1 25/25/1 19/19/1 
# 32 faces

